<svg xmlns="http://www.w3.org/2000/svg" xmlns:xlink="http://www.w3.org/1999/xlink" viewBox="-29 -15 58 29"><clipPath id="c"><use xlink:href="#a"/></clipPath><clipPath id="d"><use xlink:href="#b"/></clipPath><path d="M22.5 8.9c-6.9 3.7-23.8 4.6-31 1.3l23.4-5.4z" fill="#B674BC"/><g clip-path="url(#c)"><path d="M-14.3 1.3c-3.3.5-11.2 4.9-14.1 7.4 4.9 7.5 18.1 4.7 24.9 1.4s17.7-4.8 26-1.2C17.8 5 10.4 1.6 7.5 1.3z" fill="#D39CD1" id="a"/><path d="M-32 15l5.1-10.3c1.2 7.4 16.3 5.8 22.3 2.4s19.4-5.5 24.7-.4l7 5z" fill="#FBFBFB"/></g><g clip-path="url(#d)"><path d="M7.9-3.8c7.8-15.6 23-11.7 20.1-2.8S17.9.1 17.2-3c-3.8.1-5.9 2.5-9.7 4.3l-.1-2.6z" fill="#FF5555" id="b"/><path d="M11.7.2c.2-3.2.9-5.5 2.2-7-.6 1.5-1.3 3.5-1.3 5.7l1.6-.8c.4-3.5 1.7-5.7 3.3-7.3-1 1.8-2.2 4.4-2.5 7.2l2.2-1c-.4-4.2 3.8-5.7 5.1-3.8s-.8 3.6-1.5 1.7c1.2.9 1.8-1.4 0-1.7s-4.3 2.6-1.9 7z" fill="#F24C4C"/></g><path d="M7.9-3.8L-14.3-4v5.3c1.4 3.5 18.7 3.9 21.8 0z" fill="#B674BC"/><path d="M8.1-6.5l-22.4.1V-4c4.6 2.3 17.2 3 22.2.2z" fill="#FBFBFB"/><path d="M8.1-6.5C7-8.9-14-8.9-14.3-6.4c1.9 3.5 20.6 3.7 22.4-.1z" fill="#D39CD1"/></svg>